<svg xmlns="http://www.w3.org/2000/svg" version="1.1" width="600px" height="600px" viewBox="0 0 200 200" style="overflow:hidden!important;"><g id="svga-group-wrapper"><g id="svga-group-backs-single"></g><g id="svga-group-humanwrap-move" transform="matrix(1,0,0,1,0,0)"><g id="svga-group-humanwrap"><g id="svga-group-hair-back-move" transform="matrix(1,0,0,1,0,0)"><g id="svga-group-hair-back"></g></g><g id="svga-group-humanbody-back"><path id="SvgjsPath9386" d="m170 180.3-27.3-6.9-18-9.9-1.5-28.2H76.8l-1.5 28.2-18 9.9-27.3 6.9-9.1 19.7-3 20h164.2l-3-20z" fill="#8c5537" stroke-width="none" opacity="1" stroke="none"></path><path id="SvgjsPath9387" d="m76.8 135.3-1.5 28.2-18 9.9-27.3 6.9-9.1 19.7-3 20h14.6v-20l2.7-17.7 23.8-6.4 24.7-8.3 3.5-32.3z" fill="#6d3415" stroke-width="none" opacity="1" stroke="none"></path></g><g id="svga-group-chinshadow-single"><path id="SvgjsPath9382" d="m122.4 140.2 1-1-.2-3.9H76.8l-.5 9.2 13.8 13.8h14.3z" fill="#5e2709" stroke-width="none" opacity="1" stroke="none"></path></g><g id="svga-group-humanbody-front"><path id="SvgjsPath9388" d="m92.8 168.3 2 7.9 6.9 4.6s-8.5-3-8.7-3.6c-.2-.6-.2-8.9-.2-8.9z" fill="#6d3415" stroke-width="none" opacity="1" stroke="none"></path></g><g id="svga-group-clothes-single"><path id="SvgjsPath13075" d="m183.7 220-3.2-20.5-9.6-20.1-27.7-7-17.6-9.7-1-1.3.1 2.1.7 2.9-8.8 10.2-9.4 4.2H92.8l-9.4-4.2-8.8-10.2.7-2.9.1-2.1-1 1.3-17.6 9.7-27.8 7-9.5 20.1-3.2 20.5z" fill="#591956" stroke-width="none" opacity="1" stroke="none"></path><path id="SvgjsPath13076" d="m72 164.1-1.1 3.8 7.9 11.6 13.9 6.6 9 1.2h-8.9l-14-6.5-8.7-12.5 1.5-4 .4-.2zM29.6 207l3.5-14.5 2.9.7 2.5 9.3-1.6-9.4-3.3-8.9 27.6-5.8 12-6.2 4.2-2.5-2.8-3.2.7-2.9.1-2.1-1 1.3-17.7 9.7-27.7 7-9.6 20.1-3.1 20.4h13.2l.1-13zm13.6 8.7-1.8-6.5.2 10.8h2.1l-.5-4.3zm84.8-51.6 1.1 3.8-7.9 11.6-13.9 6.6-9 1.2h8.9l14-6.5 8.7-12.5-1.5-4-.4-.2zm28.8 51.6 1.8-6.5-.2 10.8h-2.1l.5-4.3z" fill="#4a0d47" stroke-width="none" opacity="1" stroke="none"></path></g><g id="svga-group-head" transform="matrix(1,0,0,1,0,0)"><g id="svga-group-ears-left-move" transform="matrix(1,0,0,1,0,0)"><g id="svga-group-ears-left"><path id="SvgjsPath9885" d="M60.9 93s-5.5-3-7.7-3.9c0 0-3.9 5.4-5.1 7.2 0 0 3.1 14.7 3.9 17.3l5 6.5 5.4-1.7 4.2-14.2L60.9 93z" fill="#8c5537" stroke-width="none" opacity="1" stroke="none"></path><path id="SvgjsPath9886" d="M58.8 104.7c-.2-.4-6-10-6-10l-2.3 7.9 2.6-2.4 1.6 2.9s-.3 5-.2 5.5c0 .5 2.4 4.3 2.4 4.3l1.9-8.2z" fill="#6d3415" stroke-width="none" opacity="1" stroke="none"></path><path id="SvgjsPath9887" d="m58.4 98-5.2-8.9c2.2.9 7.7 1.8 7.7 1.8l5.7 13.3-4.2 14.2-5.4 1.7 3.6-3.4L58.4 98z" fill="#7d4425" stroke-width="none" opacity="1" stroke="none"></path></g></g><g id="svga-group-ears-right-move" transform="matrix(1,0,0,1,0,0)"><g id="svga-group-ears-right"><path id="SvgjsPath9888" d="M139.1 93s5.5-3 7.7-3.9c0 0 3.9 5.4 5.1 7.2 0 0-3.1 14.7-3.9 17.3l-5 6.5-5.4-1.7-4.2-14.2 5.7-11.2z" fill="#8c5537" stroke-width="none" opacity="1" stroke="none"></path><path id="SvgjsPath9889" d="M141.2 104.7c.2-.4 6-10 6-10l2.3 7.9-2.6-2.4-1.6 2.9s.3 5 .2 5.5c0 .5-2.4 4.3-2.4 4.3l-1.9-8.2z" fill="#6d3415" stroke-width="none" opacity="1" stroke="none"></path><path id="SvgjsPath9890" d="m141.6 98 5.2-8.9c-2.2.9-7.7 1.8-7.7 1.8l-5.7 13.3 4.2 14.2 5.4 1.7-3.6-3.4 2.2-18.7z" fill="#7d4425" stroke-width="none" opacity="1" stroke="none"></path></g></g><g id="svga-group-faceshape-wrap"><g id="svga-group-faceshape-single"><path id="SvgjsPath9368" d="M138.1 60c-6.9-11.6-19.7-19.5-19.7-19.5-7.2-1.5-18.4-2.3-18.4-2.3s-11.1.8-18.4 2.3c0 0-12.8 7.9-19.7 19.5 0 0-5.1 14.5-5.3 24.8l1.2 18.7 9.1 23.5 8 7.6 18 18.1h14.2l18-18.1 8-7.6 9.1-23.5 1.2-18.7c-.2-10.3-5.3-24.8-5.3-24.8z" fill="#8c5537" stroke-width="none" opacity="1" stroke="none"></path><path id="SvgjsPath9369" d="m93.2 150.3-24.4-24.7-7.7-23.7.3-18 4.3-22.1 17.4-18 16.7-4 18.6.7c-7.2-1.5-18.4-2.3-18.4-2.3s-11.1.8-18.4 2.3c0 0-12.8 7.9-19.7 19.5 0 0-5.1 14.5-5.3 24.8l1.2 18.7 9.1 23.5 8 7.6 18 18.1h14.2l18-18.1 8-7.6-27 23.4H93.2v-.1z" fill="#6d3415" stroke-width="none" opacity="1" stroke="none"></path></g></g><g id="svga-group-mouth-single-move" transform="matrix(1,0,0,1,0,0)"><g id="svga-group-mouth-single"><path id="SvgjsPath13925" d="m82.7 123.9 1.5 4.2 10.2 9.1 13.4.1 8.6-8.4 1.1-5.2-17.4 4.4z" fill="#000000" stroke-width="none" opacity="1" transform="translate(0 2)"></path><path id="SvgjsPath13926" d="m100.1 128.1-17.4-4.2 1.9 4.1 15.4 3.5 16.1-2.8 1.4-5z" fill="#ffffff" stroke-width="none" opacity="1" transform="translate(0 2)"></path><path id="SvgjsPath13927" d="m81.8 123.6 18.3 4.8 18.8-5-19 3.3z" fill="#904539" stroke-width="none" opacity="1" transform="translate(0 2)"></path><path id="SvgjsPath13928" d="m117.4 121.1 1 2.4.2 2.7.7-2.4-.9-2.3-1-.4zm-34.9.5-.9 2.3.7 2.4.2-2.7 1-2.4-1 .4z" fill="#7d4425" stroke-width="none" opacity="1" transform="translate(0 2)"></path><path id="SvgjsPath13929" d="M96.6 140.1s1.4.8 1.6.8c.2 0 6.4-.1 6.4-.1l.7-.9-8.7.2z" fill="#6d3415" stroke-width="none" opacity="1" transform="translate(0 2)"></path></g></g><g id="svga-group-eyes-left-move" transform="matrix(1,0,0,1,0,0)"><g id="svga-group-eyes-left"><g id="svga-group-eyesback-left"><path id="SvgjsPath9324" d="M91.2 95.7 86 91.1l-9 .1-7 3.8s5.8 4.3 7.2 4.9l8.8-.4 5.2-3.8z" fill="#ffffff" stroke-width="none" opacity="1"></path></g><g id="svga-group-eyesiriswrapper-left" transform="matrix(1,0,0,1,0,0)"><g id="svga-group-eyesiriscontrol-left" transform="matrix(1,0,0,1,0,0)"><g id="svga-group-eyesiris-left"><path id="SvgjsPath10335" d="m82.2 100.2-5.5-2-1-5.8 4.5-3.8 5.5 2.1 1 5.7z" fill="#433119" stroke-width="none" opacity="1" stroke="none"></path><path id="SvgjsPath10336" d="m78.2 95.4.6-3.1 3-1 2.4 2.1-.7 3.1-3 1z" fill="#000000" stroke-width="none" opacity="1"></path><path id="SvgjsPath10337" d="m78 91.7 2.2 2.1.6-.4-1.2-2.7z" fill="#ffffff" stroke-width="none" opacity="1"></path><path id="SvgjsPath10338" d="m82.1 96.4.5 1 .8-.4-.4-1z" fill="#ffffff" stroke-width="none" opacity="1"></path></g></g></g><g id="svga-group-eyesfront-left"><path id="SvgjsPath9332" d="M67.1 89.3v11.9l7.9 8.4h11.2l7.9-8.4V89.3l-7.9-8.4H75l-7.9 8.4zm3 5.7 7-3.8 9-.1 5.1 4.6-5.2 3.9-8.8.4c-1.3-.8-7.1-5-7.1-5z" fill="#8c5537" stroke-width="none" opacity="1" stroke="none"></path><path id="SvgjsPath9333" d="m91.7 96.1-1.2-.6-4.7-4.1H77l-7.2 4-1 .2 7.9-5 9.6-.1z" fill="#000000" stroke-width="none" opacity="1" stroke="none"></path><path id="SvgjsPath9334" d="m90.8 94-4-4.1-9.8-.1-8.1 3.6 8.1-3.1h9.7z" fill="#7d4425" stroke-width="none" opacity="1" stroke="none"></path></g></g></g><g id="svga-group-eyes-right-move" transform="matrix(1,0,0,1,0,0)"><g id="svga-group-eyes-right"><g id="svga-group-eyesback-right"><path id="SvgjsPath9325" d="m108.8 95.7 5.1-4.6 9 .1 7 3.8s-5.8 4.3-7.2 4.9l-8.8-.4-5.1-3.8z" fill="#ffffff" stroke-width="none" opacity="1"></path></g><g id="svga-group-eyesiriswrapper-right" transform="matrix(1,0,0,1,0,0)"><g id="svga-group-eyesiriscontrol-right" transform="matrix(1,0,0,1,0,0)"><g id="svga-group-eyesiris-right"><path id="SvgjsPath10339" d="m119.8 100.2-5.5-2-1-5.8 4.5-3.8 5.5 2.1 1 5.7z" fill="#433119" stroke-width="none" opacity="1" stroke="none"></path><path id="SvgjsPath10340" d="m115.8 95.4.7-3.1 3-1 2.3 2.1-.6 3.1-3 1z" fill="#000000" stroke-width="none" opacity="1"></path><path id="SvgjsPath10341" d="m115.7 91.7 2.2 2.1.6-.4-1.2-2.7z" fill="#ffffff" stroke-width="none" opacity="1"></path><path id="SvgjsPath10342" d="m119.7 96.4.6 1 .8-.4-.4-1z" fill="#ffffff" stroke-width="none" opacity="1"></path></g></g></g><g id="svga-group-eyesfront-right"><path id="SvgjsPath9335" d="M125 80.8h-11.2l-7.9 8.4v11.9l7.9 8.4H125l7.9-8.4V89.3l-7.9-8.5zm-2.3 19.1-8.8-.4-5.1-3.8 5.1-4.6 9 .1 7 3.8s-5.8 4.2-7.2 4.9z" fill="#8c5537" stroke-width="none" opacity="1" stroke="none"></path><path id="SvgjsPath9338" d="m108.3 96.1 1.2-.6 4.7-4.1h8.8l7.2 4 1 .2-7.9-5-9.6-.1z" fill="#000000" stroke-width="none" opacity="1" stroke="none"></path><path id="SvgjsPath9339" d="m109.2 94 4-4.1 9.8-.1 8.1 3.6-8.1-3.1h-9.7z" fill="#7d4425" stroke-width="none" opacity="1" stroke="none"></path></g></g></g><g id="svga-group-facehighlight-single"></g><g id="svga-group-eyebrows-left-move" transform="matrix(1,0,0,1,0,0)"><g id="svga-group-eyebrows-left-rotate" transform="matrix(1,1.7453292519943295e-9,-1.7453292519943295e-9,1,1.4451326535436237e-7,-1.3849188462700113e-7)"><g id="svga-group-eyebrows-left"><path id="SvgjsPath9252" d="M74.2 77.6 71 79l-5 9 8.5-4.6 17.3 3.7.9-6z" fill="#2a232b" stroke-width="none" opacity="1" stroke="none"></path><path id="SvgjsPath9253" d="m87.9 84-1.2-4-1.7-.4 2.9 4.4zM73 78.2l5.6 4.6-4.4-5.2-1.2.6zm6.9.5 3.8 5-1.9-4.6-1.9-.4zm-11.7 5.4 2.7-1.5-2.1.5-.6 1zm14.7-4.8 1.7 1.9-.5-1.7-1.2-.2zm-12.4.7 3.8.8L71 79l-.5 1zm16.6.1 3.5 5.2-1.4-4.7-2.1-.5z" fill="#3a353a" stroke-width="none" opacity="1" stroke="none"></path></g></g></g><g id="svga-group-eyebrows-right-move" transform="matrix(1,0,0,1,0,0)"><g id="svga-group-eyebrows-right-rotate" transform="matrix(1,1.7453292519943295e-9,-1.7453292519943295e-9,1,1.4451326535436237e-7,-2.1057397248114285e-7)"><g id="svga-group-eyebrows-right"><path id="SvgjsPath9254" d="m107.3 81.1.9 6 17.3-3.7L134 88l-5-9-3.2-1.4z" fill="#2a232b" stroke-width="none" opacity="1" stroke="none"></path><path id="SvgjsPath9255" d="m115 79.6-1.7.3-1.2 4 2.9-4.3zm10.8-2-4.4 5.2 5.6-4.6-1.2-.6zm-7.6 1.5-1.9 4.6 3.8-5-1.9.4zm12.9 4-2.1-.5 2.7 1.5-.6-1zm-15.2-3.6-.5 1.7 1.7-1.9-1.2.2zM129 79l-3.2 1.8 3.8-.8-.6-1zm-18.2 1.5-1.4 4.7 3.5-5.2-2.1.5z" fill="#3a353a" stroke-width="none" opacity="1" stroke="none"></path></g></g></g><g id="svga-group-beardwrap"><g id="svga-group-beard-single-move" transform="matrix(1,0,0,1,0,3)"><g id="svga-group-beard-single"><path id="SvgjsPath13761" d="m118 116.8-10.7.8-6.3 1.8h-2l-6.3-1.8-10.7-.8-6.6 4.5.1 12.9 7.4 13.6 10.6 7.1h13l10.6-7.1 7.4-13.6.1-12.9-6.6-4.5zm-1.4 16.2-5.7 7.3-5.5 2.2-1.2-1.1v-3.9H96v3.9l-1.2 1.1-5.5-2.2-5.7-7.3-2-10.8 2.8-1.8 14.6 1.9h2.4l14.6-1.9 2.8 1.8-2.2 10.8z" fill="#2a232b" stroke-width="none" opacity="1"></path><path id="SvgjsPath13762" d="M94.3 153.7c-.3.1-7.7-6.5-7.7-6.5l-8.1-13.1-1.6-11.4 5.1-4.6 8.8.4 9.8 2.1 8.2-3-1.5.1-6.3 1.8h-2l-6.3-1.8-10.7-.9-6.6 4.5.1 12.9 7.4 13.6 10.6 7.1h13l10.6-7.1-10.9 5.7s-11.6.1-11.9.2zm2.2-12-.5-4.2v3.9l-1.2 1.1-5.5-2.2c.1.4 5 2.4 5.2 2.8.1.2 2-1.4 2-1.4zm4.7-19.5 14.6-1.9 2.8 1.8-2 10.8-5.7 7.3-5.5 2.2 6-2 6.1-7 2.7-11.6-3.4-2.5-15.6 2.9z" fill="#1b141c" stroke-width="none" opacity="1"></path></g></g></g><g id="svga-group-mustache-single-move" transform="matrix(1,0,0,1,0,0)"><g id="svga-group-mustache-single"><path id="SvgjsPath13796" d="M103.2 119.6h11.7l7.3 1.2-.3 8-1.6 1.1-.9-3s-8-.1-8.2-.2c-.2-.1-9.5-.9-9.5-.9l-1.3-1.2-1.2 1.2s-9.3.8-9.5.9c-.2.1-8.2.2-8.2.2l-.9 3-1.6-1.1-.3-8 7.3-1.2h17.2z" fill="#2a232b" stroke-width="none" opacity="1"></path><path id="SvgjsPath13797" d="m110.7 125.8-2.2-2.7-1.9-2.9 1.7 3.2 2.4 2.4zm8.4.3-2.4-2.6-4.6-2.9 3.7 3.1 3.3 2.4zm2-3.9-2.9-1.5 2.3 1.9.8 4.7-.2-5.1zm-42 6.6.3-7.5 3.6-.7-1.5 2.3-.8 7.1 1.3-6.7 4.2-3.6-7.3 1.2.2 7.9zm24.1-9.2h-17l6.3.2-1.8 3.5-3.4 3 4.1-2.7 2.2-3.7 6.2 2.2.9 2.5.5-2.3 5.2-2.8h-3.2zm-14.8 7.2c.8 0 1.4 0 1.4-.1.2-.1 9.5-.9 9.5-.9l-4.7-.1s-3.5.6-6.2 1.1zm18.3-1h-4.9s9.3.8 9.5.9c.2.1 8.2.2 8.2.2l.9 3 .1-3.5-7.7-.1-6.1-.5z" fill="#221b23" stroke-width="none" opacity="1"></path></g></g><g id="svga-group-nose-single-move" transform="matrix(1,0,0,1,0,0)"><g id="svga-group-nose-single"><path id="SvgjsPath9440" d="m96.12 99.91-.45 6.4-5.78 8.87 2.98 2.25 1.63-2.02 4.32 3.82h2.41l4.27-3.82 1.57 1.96 3.15-2.19-5.79-8.92-.56-6.46-3.82-1.63z" fill="#8c5537" stroke-width="none" opacity="1" transform="translate(0 1)" stroke="none"></path><path id="SvgjsPath9441" d="m104.86 106.44-1.95-15.67 1.1 14.55-.86-.22 6.58 10.06-2.34 1.73-1.28-1.51.28-1.34-5.15 4.47h-2.4l-5.15-4.47.29 1.34-1.29 1.51-2.34-1.73 6.59-10.06-.86.22 1.33-22.81-2.19 23.93-5.82 8.83 3.81 2.79 1.44-2.01 4.19 3.91h2.4l4.2-3.91 1.43 2.01 3.81-2.79z" fill="#6d3415" stroke-width="none" opacity="1" transform="translate(0 1)" stroke="none"></path><path id="SvgjsPath9442" d="m96.15 113.17 2.37 1.46 3.1.06 2.55-1.16-.3-1.76-3.59-.6-3.94.66z" fill="#945e41" stroke-width="none" opacity="1" transform="translate(0 1)" stroke="none"></path></g></g><g id="svga-group-hair-front"><path id="SvgjsPath12428" d="m99.5 63.6-9.3-2.3-5-1.4-5.1-1.7-7.3-1.8-6.5 8.8-3 18.8-3 9.3-4.2-5.7-.4-10.7 1.2-15.1 7.3-12.1-1.1-6.2 3.9-9.7.4-6.5 3 7.7-1.2-7.3 3.6-7.2v4.6l1.8 3.6-.4-4 4.5 5.3 6.8 2-5.8-3.9-1.6-4.4 4.6 3 4 .4-2.8-3.6 5.9 3 21.1 2.6 4.9 3.5 10.3 4.8 1.8 3.2 4.6 4.3.8 4.2 8.5 6.8 2.4 19.2-.2 13.7-5.2 6.3-2.3-9.1-2-23.6L125 55l-14.8 6.1z" fill="#2a232b" stroke-width="none" opacity="1" stroke="none"></path><path id="SvgjsPath12429" d="m99.5 63.6-18.2-9L70.4 35l-1.2-7.3 3.6-7.3V25l1.8 3.6 10.5 9.5 11.4 7.7 1 14.1 2 3.7zm-26.7-7.2-8.6-6.7-1.1-6.2 3.9-9.7 5.3 15.7 14.5 10.7-14-3.8zm5.3-32.7 1.6 4.4 5.8 3.8 20.4 5.9 4.9 10.9-4.2 11.9-7.2 2.8 10.7-2.5s9.7-17.1 9.7-17.9-6.7-10-6.7-10l-28.2-4.2-4.9-2-1.9-3.1zm55.2 25.4L125 55l-10.1 4 10.5-9.2 2.4-9.2 4.6 4.2.9 4.3zm1.2 13.3 3.4-2.2 3.9-4.3-3.9 12.8-2.6 4.4-.8-10.7zm-68.2 2.8-3 18.8-6.5-22.2 6-9.7 3.5 13.1z" fill="#221b23" stroke-width="none" opacity="1" stroke="none"></path><path id="SvgjsPath12430" d="m79.3 31 25.5 7.1 6.1 10.8-4.3 11.9-6.7-17.1-15.1-7.5-5.5-5.2zm35.2 26.2 11-7.3 2.4-9.2-1.8-3.2-10.3-4.8 7.2 8.7-.6 5.2-7.9 10.6z" fill="#322c33" stroke-width="none" opacity="1" stroke="none"></path></g><g id="svga-group-glasses-single-move" transform="matrix(1,0,0,1,0,0)"><g id="svga-group-glasses-single"></g></g></g></g></g><rect id="svga-credit-rect" width="200" height="15" x="0" y="185" fill="#ecf0f1" opacity="0.5" style="display: none;"></rect><text id="svga-credit-text" font-family="Avenir Next, Roboto, Helvetica, Arial, sans-serif" font-size="10px" text-anchor="start" font-weight="400" size="10px" anchor="start" weight="400" fill="#333333" x="33.402061462402344" y="182.71133995056152" style="display: none;"><tspan id="SvgjsTspan9246" dy="13" x="33.402061462402344">Created on AvatarMaker.com</tspan></text></g><defs id="SvgjsDefs9193"></defs></svg>